<?xml version="1.0" standalone="no"?>
<!DOCTYPE svg PUBLIC "-//W3C//DTD SVG 20010904//EN"
 "http://www.w3.org/TR/2001/REC-SVG-20010904/DTD/svg10.dtd">
<svg version="1.0" xmlns="http://www.w3.org/2000/svg"
 width="1024.000000pt" height="1024.000000pt" viewBox="0 0 1024.000000 1024.000000"
 preserveAspectRatio="xMidYMid meet">
<metadata>
Created by potrace 1.11, written by Peter Selinger 2001-2013
</metadata>
<g transform="translate(0.000000,1024.000000) scale(0.100000,-0.100000)"
fill="#000000" stroke="none">
<path d="M556 10225 c-11 -8 -30 -15 -43 -15 -33 0 -136 -53 -203 -103 -131
-99 -223 -231 -269 -387 -6 -19 -17 -58 -26 -87 -13 -46 -15 -519 -15 -4513 0
-3994 2 -4467 15 -4513 9 -29 20 -68 26 -87 33 -113 99 -224 189 -320 61 -65
232 -170 277 -170 10 0 31 -7 47 -15 25 -13 563 -15 4587 -15 2888 0 4559 3
4559 10 0 5 17 12 38 15 81 14 230 103 303 181 81 88 158 217 174 291 4 18 11
33 16 33 5 0 9 1801 9 4590 0 2616 -4 4590 -9 4590 -5 0 -11 14 -15 31 -19 98
-154 291 -254 364 -61 44 -177 101 -224 109 -21 4 -38 11 -38 16 0 7 -1672 10
-4562 10 -3996 -1 -4565 -2 -4582 -15z m3792 -1382 c15 -10 31 -23 35 -30 4
-7 13 -13 18 -13 6 0 44 -25 84 -55 41 -30 79 -55 85 -55 5 0 10 -4 10 -9 0
-6 11 -16 25 -23 74 -39 226 -152 230 -172 6 -31 25 -3008 26 -4199 l1 -1017
22 -4 c28 -6 181 -26 226 -30 50 -5 207 -24 330 -41 58 -8 132 -17 165 -20 72
-6 284 -31 340 -39 59 -10 197 -26 314 -36 57 -5 120 -14 140 -20 20 -5 61
-10 91 -10 30 -1 75 -5 100 -10 25 -6 92 -15 150 -20 58 -6 120 -13 138 -16
l32 -6 0 1467 0 1467 39 37 c21 20 67 59 101 86 35 28 72 59 83 69 20 19 22
19 68 3 25 -9 57 -17 68 -17 12 0 31 -5 42 -11 11 -6 41 -14 67 -19 44 -8 73
-15 237 -56 85 -21 86 -21 96 -4 17 31 59 129 59 138 0 5 11 30 25 56 14 26
25 56 25 67 0 10 5 19 10 19 6 0 10 5 10 11 0 6 6 25 14 42 7 18 21 50 30 72
9 22 21 48 26 57 6 10 10 23 10 30 0 7 9 24 19 37 l18 24 96 -67 c54 -36 101
-66 106 -66 5 0 11 -4 13 -9 2 -4 38 -32 81 -61 l77 -52 0 -1844 0 -1844 33 0
c17 -1 43 -7 57 -15 14 -8 37 -14 52 -15 15 0 30 -5 33 -10 3 -5 16 -10 28
-10 12 0 35 -7 51 -15 15 -8 36 -15 45 -15 9 0 29 -7 45 -15 15 -8 38 -15 50
-15 11 0 30 -7 40 -15 11 -8 27 -15 37 -15 9 0 30 -7 45 -15 16 -8 37 -15 46
-15 9 0 20 -4 23 -10 3 -6 14 -10 23 -10 9 0 30 -7 46 -15 15 -8 34 -15 41
-15 8 0 26 -6 42 -14 39 -20 100 -46 108 -46 5 0 37 -14 150 -65 71 -32 222
-108 250 -126 17 -10 39 -23 50 -29 45 -24 67 -39 91 -59 13 -11 27 -21 32
-21 4 0 24 -16 45 -35 50 -46 50 -83 -1 -55 -40 22 -201 85 -247 97 -11 3 -34
11 -52 19 -17 8 -40 14 -51 14 -12 0 -24 5 -27 10 -3 6 -16 10 -28 10 -12 0
-35 7 -51 15 -15 8 -37 15 -47 15 -10 0 -33 6 -51 14 -54 22 -134 46 -155 46
-10 0 -23 4 -28 9 -6 5 -30 13 -55 19 -25 6 -70 18 -100 27 -30 9 -73 20 -95
25 -61 13 -126 31 -168 46 -20 8 -51 14 -67 14 -16 0 -31 4 -34 9 -3 5 -27 12
-53 16 -27 4 -52 10 -58 15 -5 4 -29 10 -53 13 l-43 5 3 -76 3 -77 35 -7 c39
-8 118 -28 200 -53 30 -9 71 -20 90 -25 19 -4 49 -13 65 -18 17 -6 57 -18 90
-28 33 -9 69 -20 80 -25 11 -4 47 -15 80 -24 33 -9 75 -23 93 -31 18 -8 39
-14 46 -14 8 0 27 -7 42 -15 16 -8 38 -15 49 -15 11 0 29 -7 39 -15 11 -8 30
-15 42 -15 13 0 26 -4 29 -10 3 -5 13 -10 22 -10 14 0 32 -7 121 -46 17 -8 47
-20 65 -28 120 -52 217 -108 217 -125 0 -15 -19 -13 -115 14 -33 9 -78 20
-100 25 -50 11 -120 29 -162 41 -18 6 -54 14 -80 19 -27 5 -82 17 -123 25 -41
9 -95 20 -120 25 -25 4 -61 13 -80 19 -19 6 -50 11 -68 11 -18 0 -42 4 -52 10
-10 5 -44 12 -76 16 -33 3 -68 9 -79 14 -18 8 -77 18 -235 39 -30 4 -82 13
-115 19 -111 21 -210 35 -285 42 -41 4 -86 10 -100 14 -23 5 -83 12 -310 36
-47 5 -119 13 -160 19 -124 17 -297 34 -440 43 -74 5 -153 11 -175 14 -22 2
-110 7 -195 10 -85 3 -162 7 -170 10 -18 7 -57 9 -380 19 -140 4 -259 11 -265
15 -17 11 -1301 4 -1635 -9 -426 -18 -431 -18 -460 -24 -14 -3 -107 -8 -207
-11 -100 -3 -193 -10 -208 -16 -14 -5 -74 -10 -133 -10 -59 0 -136 -5 -172
-11 -36 -5 -117 -14 -180 -19 -197 -15 -320 -29 -560 -61 -47 -7 -119 -15
-160 -19 -74 -7 -148 -17 -330 -46 -52 -8 -122 -19 -155 -24 -97 -14 -256 -40
-310 -51 -27 -5 -70 -12 -95 -15 -25 -3 -60 -10 -79 -16 -19 -6 -59 -14 -90
-18 -57 -8 -147 -25 -211 -40 -83 -20 -138 -32 -185 -41 -96 -18 -164 -34
-171 -42 -14 -14 -74 -8 -74 8 0 8 9 15 19 15 11 0 26 7 35 15 8 8 21 15 28
15 8 0 23 7 34 15 10 8 26 15 34 15 8 0 28 7 44 15 15 8 36 15 46 15 10 0 23
7 30 15 7 8 23 15 36 15 12 0 25 4 28 9 4 5 24 12 46 16 22 4 42 11 46 16 3 5
16 9 30 9 14 0 35 5 47 12 12 6 35 15 52 19 16 4 62 17 100 29 39 12 86 25
105 30 19 5 62 16 95 25 97 26 177 45 220 53 23 5 45 11 51 15 6 3 35 11 65
16 68 13 174 36 264 56 39 9 95 20 125 25 30 4 75 13 100 19 75 17 190 39 295
56 55 9 116 21 135 25 19 5 58 11 85 14 65 7 77 10 93 20 14 8 13 116 -4 565
l-6 153 -102 -6 c-55 -4 -117 -11 -136 -16 -19 -4 -89 -9 -155 -9 -66 -1 -180
-8 -253 -16 -74 -8 -166 -15 -205 -15 -40 0 -99 -4 -132 -9 -33 -6 -109 -12
-170 -16 -60 -3 -128 -8 -150 -11 -50 -7 -347 -32 -517 -43 -69 -5 -131 -11
-136 -15 -6 -3 -57 -11 -114 -16 -57 -6 -122 -13 -145 -16 -60 -9 -56 15 7 44
27 12 54 22 60 22 6 0 18 4 28 9 46 25 87 41 107 41 11 0 25 4 30 9 6 6 28 14
50 20 101 25 131 33 150 41 24 9 109 28 190 40 33 6 69 14 80 20 11 5 45 11
75 13 30 2 82 9 115 15 93 16 204 32 270 37 33 3 87 10 120 15 33 5 98 12 145
15 47 4 99 9 115 11 17 3 86 9 155 14 69 5 145 13 170 19 25 6 74 11 110 11
36 0 111 7 168 17 l102 16 0 2288 0 2288 48 38 c26 21 49 40 52 43 3 3 25 21
50 40 56 43 83 66 129 107 40 36 89 44 111 18 7 -8 19 -15 26 -15 8 0 14 -4
14 -10 0 -5 17 -17 38 -27 36 -17 92 -52 102 -64 3 -4 15 -9 28 -13 12 -4 22
-12 22 -17 0 -5 4 -9 10 -9 9 0 110 -58 120 -69 8 -9 43 -30 67 -40 11 -6 24
-15 28 -20 12 -21 44 -11 181 58 77 38 147 71 156 74 15 5 17 32 20 273 2 195
6 268 15 271 6 2 27 18 45 34 18 17 60 51 93 77 33 25 76 61 95 78 19 18 49
43 65 55 17 13 34 29 38 36 10 17 12 16 45 -4z"/>
<path d="M3905 7508 c-22 -5 -44 -13 -49 -18 -6 -6 -22 -10 -37 -10 -15 0 -34
-7 -43 -15 -8 -8 -25 -15 -38 -15 -13 0 -33 -7 -44 -15 -10 -8 -28 -15 -39
-15 -12 0 -25 -4 -30 -9 -6 -4 -35 -16 -65 -25 -59 -19 -108 -39 -153 -62 -16
-8 -35 -14 -42 -14 -7 0 -26 -6 -42 -14 -15 -8 -46 -22 -68 -31 -22 -9 -48
-20 -57 -25 -10 -6 -24 -10 -32 -10 -7 0 -25 -9 -39 -20 -20 -16 -26 -31 -28
-68 -2 -26 -3 -877 -4 -1892 l0 -1845 425 0 425 0 3 1475 c1 811 1 1736 0
2055 l-3 581 -40 -8z"/>
<path d="M7731 5685 c-18 -8 -43 -15 -55 -15 -12 0 -30 -6 -41 -14 -11 -7 -33
-16 -50 -19 -35 -7 -111 -27 -140 -37 -45 -16 -122 -39 -152 -45 -18 -4 -35
-11 -38 -16 -4 -5 -21 -9 -39 -9 -19 0 -39 -6 -45 -14 -9 -10 -12 -331 -14
-1255 l-2 -1242 25 -5 c14 -3 35 -10 48 -15 13 -5 33 -9 46 -9 13 0 46 -6 72
-14 52 -15 128 -32 209 -46 51 -9 123 -25 185 -41 19 -5 44 -10 55 -11 20 -3
20 4 23 1410 l2 1412 -27 0 c-16 -1 -43 -7 -62 -15z"/>
<path d="M3112 3107 c-8 -9 -10 -121 -9 -347 l2 -334 140 2 c77 2 180 7 228
13 49 5 172 14 274 19 102 5 189 12 194 17 4 4 9 135 11 291 l3 283 -50 14
c-27 8 -84 16 -125 19 -41 3 -109 10 -150 15 -41 5 -169 9 -284 10 -116 1
-213 4 -217 7 -4 2 -12 -2 -17 -9z"/>
<path d="M4845 2988 c-3 -8 -4 -117 -3 -243 l3 -230 50 -7 c28 -4 115 -7 195
-7 336 0 1130 -31 1455 -56 105 -8 222 -16 260 -17 l70 -3 3 162 2 162 -37 10
c-21 6 -54 11 -73 11 -19 0 -62 7 -95 15 -33 8 -76 14 -95 15 -20 0 -60 6 -90
14 -30 8 -84 17 -120 20 -64 6 -134 16 -255 37 -54 10 -97 16 -255 34 -41 5
-111 13 -370 46 -52 7 -151 16 -220 20 -69 5 -147 10 -175 13 -175 15 -245 17
-250 4z"/>
<path d="M7185 2556 c-4 -74 -4 -139 0 -145 3 -6 30 -11 59 -11 29 0 66 -4 82
-10 16 -5 70 -14 119 -19 50 -5 104 -12 120 -14 17 -3 53 -7 80 -8 l50 -3 3
122 c3 137 9 127 -83 141 -33 6 -91 17 -130 26 -38 9 -99 21 -134 26 -36 6
-73 15 -82 20 -10 5 -31 9 -47 9 l-30 0 -7 -134z"/>
</g>
</svg>
